<svg width="28" height="22" viewBox="0 0 28 22" fill="none" xmlns="http://www.w3.org/2000/svg">
<path fill-rule="evenodd" clip-rule="evenodd" d="M5.00001 -0.00012207H7.00002C7.55217 -0.00012207 7.99986 0.447673 7.99986 1.00001C7.99986 1.55235 7.55217 2.00017 7.00002 2.00017H5.00001C4.44771 2.00017 4.00002 1.55235 4.00002 1.00001C4.00002 0.447673 4.44771 -0.00012207 5.00001 -0.00012207ZM4.00002 4.00014H7.67373C6.86758 4.56782 6.14114 5.24107 5.5145 5.99979H4.00002C2.89539 5.99979 2.00001 6.89543 2.00001 8.00011V18C2.00001 19.1047 2.89539 20 4.00002 20H5.51426C6.14096 20.7588 6.86749 21.4322 7.67374 21.9999H4.00002C1.79076 21.9999 0 20.209 0 18V8.00011C0 5.79108 1.79076 4.00014 4.00002 4.00014ZM22.4854 5.99979C21.8588 5.24107 21.1323 4.56782 20.3262 4.00014H23.9999C26.2091 4.00014 27.9999 5.79108 27.9999 8.00011V18C27.9999 20.209 26.2091 21.9999 23.9999 21.9999H20.3262C21.1324 21.4322 21.8589 20.7588 22.4857 20H23.9999C25.1045 20 25.9999 19.1047 25.9999 18V8.00011C25.9999 6.89543 25.1045 5.99979 23.9999 5.99979H22.4854ZM22.0002 12.9999C22.0002 8.5815 18.4184 4.99966 13.9999 4.99966C9.58155 4.99966 5.9997 8.5815 5.9997 12.9999C5.9997 17.4186 9.58155 21.0001 13.9999 21.0001C18.4184 21.0001 22.0002 17.4186 22.0002 12.9999ZM13.9999 6.99995C17.3136 6.99995 19.9999 9.68618 19.9999 12.9999C19.9999 16.3136 17.3136 19.0001 13.9999 19.0001C10.6862 19.0001 7.99986 16.3136 7.99986 12.9999C7.99986 9.68618 10.6862 6.99995 13.9999 6.99995ZM9.8124 13.3128H11.4124C11.4124 11.9893 12.4891 10.9127 13.8124 10.9127V9.31285C11.6069 9.31285 9.8124 11.1074 9.8124 13.3128Z" fill="white"/>
</svg>
