<svg width="36" height="32" viewBox="0 0 36 32" fill="none" xmlns="http://www.w3.org/2000/svg">
<path fill-rule="evenodd" clip-rule="evenodd" d="M22 11C22 4.92499 17.0751 -0.000309944 11 -0.000309944C4.92488 -0.000309944 -4.1008e-05 4.92499 -4.1008e-05 11C-4.1008e-05 17.0751 4.92488 22.0001 11 22.0001C17.0751 22.0001 22 17.0751 22 11ZM20 11C20 6.02935 15.9705 2.00001 11 2.00001C6.02936 2.00001 1.99996 6.02935 1.99996 11C1.99996 15.9704 6.02936 20.0001 11 20.0001C15.9705 20.0001 20 15.9704 20 11ZM30.9999 6.99979C33.7614 6.99979 35.9999 9.23853 35.9999 11.9999C35.9999 14.7616 33.7614 17 30.9999 17C28.2385 17 26 14.7616 26 11.9999C26 9.23853 28.2385 6.99979 30.9999 6.99979ZM33.9999 11.9999C33.9999 10.3432 32.6568 9.00008 30.9999 9.00008C29.3431 9.00008 28 10.3432 28 11.9999C28 13.6569 29.3431 15 30.9999 15C32.6568 15 33.9999 13.6569 33.9999 11.9999ZM26 20.0001C28.2091 20.0001 29.9999 21.7907 29.9999 23.9998C29.9999 26.2091 28.2091 28 26 28C23.7909 28 22 26.2091 22 23.9998C22 21.7907 23.7909 20.0001 26 20.0001ZM28 23.9998C28 22.8954 27.1045 22.0001 26 22.0001C24.8954 22.0001 24 22.8954 24 23.9998C24 25.1044 24.8954 26 26 26C27.1045 26 28 25.1044 28 23.9998ZM16 28C17.1045 28 18 28.8953 18 30C18 31.1044 17.1045 32 16 32C14.8954 32 14 31.1044 14 30C14 28.8953 14.8954 28 16 28ZM9.50286 8.03912L13.8284 10.6914C13.9316 10.7544 13.995 10.8714 13.995 10.9978C13.995 11.1238 13.9316 11.2408 13.8284 11.3039L9.50286 13.9561C9.45126 13.9878 9.39389 14.0031 9.33621 14.0031C9.27868 14.0031 9.22135 13.9878 9.16972 13.9561C9.06683 13.8927 9.00323 13.7761 9.00323 13.6497V8.34551C9.00323 8.21944 9.06683 8.10215 9.16972 8.03912C9.27295 7.97675 9.39962 7.97675 9.50286 8.03912Z" fill="#666666"/>
</svg>
