<svg width="37" height="47" viewBox="0 0 37 47" fill="none" xmlns="http://www.w3.org/2000/svg">
<path d="M24.4729 27.9812H14.06C9.62254 27.9812 6.01245 24.3125 6.01245 19.8032V17.1276C6.01245 12.6182 9.62254 8.94955 14.06 8.94955H24.4729C28.9103 8.94955 32.5204 12.6182 32.5204 17.1276V19.8032C32.5204 24.3129 28.9103 27.9812 24.4729 27.9812ZM14.06 10.2659C10.3366 10.2659 7.30745 13.3442 7.30745 17.1279V19.8035C7.30745 23.5872 10.3366 26.6655 14.06 26.6655H24.4729C28.1962 26.6655 31.2254 23.5872 31.2254 19.8035V17.1279C31.2254 13.3442 28.1962 10.2659 24.4729 10.2659H14.06Z" fill="#D51B47"/>
<path d="M19.3272 19.8923C18.5332 19.8923 17.7396 19.6828 17.1209 19.2636L9.63065 14.1887C9.3328 13.9872 9.25288 13.5785 9.4512 13.2762C9.64915 12.9742 10.0517 12.8923 10.3492 13.0938L17.8395 18.1687C18.6328 18.7056 20.0228 18.7052 20.8154 18.1687L28.3064 13.0938C28.6039 12.8919 29.0061 12.9739 29.2044 13.2762C29.4027 13.5785 29.3221 13.9872 29.0249 14.1887L21.5336 19.2636C20.9149 19.6828 20.1213 19.8923 19.3272 19.8923Z" fill="#D51B47"/>
<path d="M10.5561 24.3238C10.397 24.3238 10.2382 24.2648 10.1132 24.146C9.85232 23.8974 9.83937 23.4808 10.0839 23.2157L13.32 19.708C13.5642 19.4426 13.9745 19.4298 14.2353 19.678C14.4962 19.9265 14.5091 20.3431 14.2646 20.6082L11.0285 24.1159C10.9013 24.2539 10.7288 24.3238 10.5561 24.3238Z" fill="#D51B47"/>
<path d="M27.8655 24.3238C27.7012 24.3238 27.5362 24.2606 27.4104 24.1336L23.9213 20.6259C23.6667 20.3702 23.6649 19.9536 23.9161 19.6953C24.1681 19.4369 24.5777 19.4347 24.8318 19.6904L28.3209 23.1981C28.5755 23.4538 28.5774 23.8704 28.3261 24.1287C28.1988 24.2588 28.0323 24.3238 27.8655 24.3238Z" fill="#D51B47"/>
</svg>
