<svg width="25" height="25" viewBox="0 0 25 25" fill="none" xmlns="http://www.w3.org/2000/svg">
<path d="M21.0976 18.625C21.5854 17.75 21.9512 16.75 21.9512 15.625C21.9512 12.5 19.5122 10 16.4634 10C13.4146 10 10.9756 12.5 10.9756 15.625C10.9756 18.75 13.4146 21.25 16.4634 21.25C17.561 21.25 18.5366 20.875 19.3902 20.375L23.2927 24.375L25 22.625L21.0976 18.625ZM16.4634 18.75C14.7561 18.75 13.4146 17.375 13.4146 15.625C13.4146 13.875 14.7561 12.5 16.4634 12.5C18.1707 12.5 19.5122 13.875 19.5122 15.625C19.5122 17.375 18.1707 18.75 16.4634 18.75ZM12.1951 22.5V25C5.46341 25 0 19.4 0 12.5C0 5.6 5.46341 0 12.1951 0C18.0976 0 23.0122 4.3 24.1463 10H21.622C21.2416 8.4898 20.5219 7.09173 19.5203 5.91752C18.5187 4.74331 17.263 3.82552 15.8537 3.2375V3.75C15.8537 5.125 14.7561 6.25 13.4146 6.25H10.9756V8.75C10.9756 9.4375 10.4268 10 9.7561 10H7.31707V12.5H9.7561V16.25H8.53659L2.69512 10.2625C2.53659 10.9875 2.43902 11.725 2.43902 12.5C2.43902 18.0125 6.81707 22.5 12.1951 22.5Z" fill="#666666"/>
</svg>
