<svg width="23" height="23" viewBox="0 0 23 23" fill="none" xmlns="http://www.w3.org/2000/svg">
<path fill-rule="evenodd" clip-rule="evenodd" d="M3 -0.00012207H7.00002C8.65693 -0.00012207 10.0002 1.34299 10.0002 2.99969V19.9996C10.0002 21.6567 8.65693 23.0001 7.00002 23.0001H3C1.34322 23.0001 0 21.6567 0 19.9996V2.99969C0 1.34299 1.34322 -0.00012207 3 -0.00012207ZM14.0002 12.9999H22.0001C22.5525 12.9999 23.0001 13.4477 23.0001 14C23.0001 14.552 22.5525 14.9995 22.0001 14.9995H14.0002C13.4477 14.9995 13 14.552 13 14C13 13.4477 13.4477 12.9999 14.0002 12.9999ZM14.0002 16.9998H22.0001C22.5525 16.9998 23.0001 17.4473 23.0001 18C23.0001 18.552 22.5525 18.9998 22.0001 18.9998H14.0002C13.4477 18.9998 13 18.552 13 18C13 17.4473 13.4477 16.9998 14.0002 16.9998ZM22.0001 20.9998H14.0002C13.4477 20.9998 13 21.4476 13 21.9999C13 22.5523 13.4477 23.0001 14.0002 23.0001H22.0001C22.5525 23.0001 23.0001 22.5523 23.0001 21.9999C23.0001 21.4476 22.5525 20.9998 22.0001 20.9998ZM20.0001 -0.00012207H16C14.3431 -0.00012207 13 1.34299 13 2.99969V6.99995C13 8.65632 14.3431 9.99976 16 9.99976H20.0001C21.6568 9.99976 23.0001 8.65632 23.0001 6.99995V2.99969C23.0001 1.34299 21.6568 -0.00012207 20.0001 -0.00012207ZM3 1.99985H7.00002C7.55247 1.99985 8.00018 2.44735 8.00018 2.99969V19.9996C8.00018 20.5523 7.55247 20.9998 7.00002 20.9998H3C2.44769 20.9998 2.00016 20.5523 2.00016 19.9996V2.99969C2.00016 2.44735 2.44769 1.99985 3 1.99985ZM20.0001 1.99985H16C15.4477 1.99985 15 2.44735 15 2.99969V6.99995C15 7.55197 15.4477 8.00011 16 8.00011H20.0001C20.5525 8.00011 21.0001 7.55197 21.0001 6.99995V2.99969C21.0001 2.44735 20.5525 1.99985 20.0001 1.99985Z" fill="#666666"/>
</svg>
