<svg width="21" height="22" viewBox="0 0 21 22" fill="none" xmlns="http://www.w3.org/2000/svg">
    <path d="M20.8449 10.8715C20.8449 9.99707 20.774 9.35895 20.6204 8.69722H10.6352V12.644H16.4963C16.3782 13.6248 15.74 15.1019 14.322 16.0945L14.3021 16.2266L17.4593 18.6725L17.678 18.6943C19.6868 16.839 20.8449 14.1093 20.8449 10.8715Z" fill="#4285F4"/>
    <path d="M10.6352 21.2703C13.5066 21.2703 15.9172 20.325 17.678 18.6943L14.322 16.0945C13.424 16.7208 12.2186 17.158 10.6352 17.158C7.82279 17.158 5.4358 15.3028 4.5849 12.7386L4.46018 12.7492L1.17733 15.2898L1.1344 15.4092C2.88328 18.8833 6.47561 21.2703 10.6352 21.2703Z" fill="#34A853"/>
    <path d="M4.5849 12.7386C4.36038 12.0768 4.23044 11.3678 4.23044 10.6352C4.23044 9.90248 4.36038 9.1935 4.57308 8.53176L4.56714 8.39083L1.24315 5.80939L1.13439 5.86112C0.413595 7.30279 0 8.92173 0 10.6352C0 12.3486 0.413595 13.9675 1.13439 15.4091L4.5849 12.7386Z" fill="#FBBC05"/>
    <path d="M10.6352 4.11224C12.6322 4.11224 13.9793 4.97487 14.7474 5.69574L17.7489 2.76515C15.9055 1.05171 13.5066 0 10.6352 0C6.47561 0 2.88328 2.38699 1.1344 5.86112L4.57309 8.53176C5.4358 5.96751 7.82279 4.11224 10.6352 4.11224Z" fill="#EB4335"/>
</svg>
