<svg width="34" height="33" viewBox="0 0 34 33" fill="none" xmlns="http://www.w3.org/2000/svg">
<g filter="url(#filter0_d)">
<path d="M16.6553 6.48566L8.33368 14.9604V24.107C8.33368 24.3439 8.40976 24.571 8.54519 24.7385C8.68063 24.9059 8.86431 25 9.05584 25L14.1137 24.9838C14.3046 24.9826 14.4874 24.888 14.622 24.7207C14.7567 24.5534 14.8323 24.3269 14.8323 24.0909V18.7493C14.8323 18.5125 14.9084 18.2853 15.0438 18.1179C15.1792 17.9504 15.3629 17.8563 15.5544 17.8563H18.4431C18.6346 17.8563 18.8183 17.9504 18.9538 18.1179C19.0892 18.2853 19.1653 18.5125 19.1653 18.7493V24.087C19.165 24.2045 19.1834 24.3209 19.2196 24.4295C19.2558 24.5382 19.3089 24.637 19.376 24.7202C19.4431 24.8034 19.5228 24.8694 19.6106 24.9145C19.6983 24.9595 19.7924 24.9827 19.8874 24.9827L24.9435 25C25.135 25 25.3187 24.9059 25.4542 24.7385C25.5896 24.571 25.6657 24.3439 25.6657 24.107V14.9542L17.3459 6.48566C17.2481 6.38817 17.1262 6.33501 17.0006 6.33501C16.8749 6.33501 16.7531 6.38817 16.6553 6.48566ZM29.8001 12.2458L26.0268 8.39993V0.669718C26.0268 0.492097 25.9697 0.321752 25.8681 0.196156C25.7665 0.0705595 25.6288 0 25.4851 0H22.9576C22.8139 0 22.6761 0.0705595 22.5746 0.196156C22.473 0.321752 22.4159 0.492097 22.4159 0.669718V4.72207L18.375 0.611117C17.9872 0.21653 17.5005 0.000788785 16.9983 0.000788785C16.4961 0.000788785 16.0095 0.21653 15.6217 0.611117L4.19656 12.2458C4.14172 12.3018 4.09634 12.3707 4.06303 12.4484C4.02972 12.5262 4.00912 12.6113 4.00241 12.6989C3.9957 12.7865 4.00302 12.8748 4.02394 12.9589C4.04487 13.043 4.07898 13.1212 4.12435 13.189L5.2753 14.9191C5.32054 14.9871 5.37619 15.0434 5.43905 15.0848C5.50192 15.1262 5.57077 15.1519 5.64166 15.1603C5.71256 15.1688 5.7841 15.1598 5.8522 15.1341C5.92031 15.1083 5.98363 15.0661 6.03854 15.01L16.6553 4.19746C16.7531 4.09997 16.8749 4.04681 17.0006 4.04681C17.1262 4.04681 17.2481 4.09997 17.3459 4.19746L27.9631 15.01C28.0179 15.0661 28.0811 15.1083 28.1491 15.1342C28.2171 15.1601 28.2886 15.1691 28.3594 15.1608C28.4303 15.1525 28.4991 15.1271 28.562 15.0859C28.6248 15.0447 28.6805 14.9886 28.7259 14.9208L29.8768 13.1906C29.9221 13.1225 29.9561 13.0439 29.9768 12.9594C29.9974 12.875 30.0044 12.7863 29.9973 12.6985C29.9902 12.6107 29.9691 12.5255 29.9352 12.4478C29.9014 12.3701 29.8554 12.3015 29.8001 12.2458Z" fill="#666666"/>
<path d="M29.4456 12.5984L29.4432 12.596L25.6699 8.7501L25.5268 8.60426V8.39993V0.669718C25.5268 0.594395 25.5017 0.538171 25.4793 0.510569C25.4754 0.505695 25.4721 0.502292 25.4695 0.5H22.9732C22.9706 0.502292 22.9673 0.505695 22.9633 0.510569C22.941 0.538171 22.9159 0.594395 22.9159 0.669718V4.72207V5.94398L22.0593 5.07257L18.0184 0.961623L18.0183 0.961589C17.714 0.65195 17.3521 0.500789 16.9983 0.500789C16.6446 0.500789 16.2827 0.651903 15.9784 0.961444C15.9784 0.961492 15.9783 0.96154 15.9783 0.961589L4.55394 12.5955C4.55388 12.5955 4.55382 12.5956 4.55376 12.5957C4.54543 12.6042 4.53343 12.6201 4.52261 12.6454C4.51173 12.6708 4.50363 12.702 4.50095 12.7371C4.49827 12.772 4.50132 12.8067 4.50915 12.8382C4.517 12.8697 4.52862 12.8941 4.53988 12.9109L4.54065 12.912L5.6916 14.6421L5.69162 14.6422C5.69266 14.6437 5.69368 14.6452 5.69467 14.6466L16.2985 3.84715L16.3023 3.84329L16.3023 3.84331C16.4836 3.6626 16.7289 3.54681 17.0006 3.54681C17.2723 3.54681 17.5175 3.6626 17.6988 3.84331L17.7026 3.84712L17.7026 3.84714L28.3073 14.647C28.3082 14.6458 28.3091 14.6445 28.31 14.6432C28.31 14.6431 28.3101 14.643 28.3102 14.6429L29.4604 12.9139L29.4456 12.5984ZM29.4456 12.5984C29.4537 12.6066 29.4658 12.6222 29.4768 12.6475C29.4878 12.6727 29.4961 12.7039 29.4989 12.739C29.5018 12.774 29.4989 12.8089 29.4911 12.8405C29.4834 12.8722 29.4718 12.8967 29.4605 12.9137L29.4456 12.5984ZM19.6653 24.0882V24.087V18.7493C19.6653 18.4102 19.5572 18.0689 19.3425 17.8035C19.1255 17.5352 18.8056 17.3563 18.4431 17.3563H15.5544C15.1919 17.3563 14.872 17.5352 14.655 17.8035C14.4403 18.0689 14.3323 18.4102 14.3323 18.7493V24.0909C14.3323 24.2249 14.2885 24.3377 14.2325 24.4072C14.1791 24.4735 14.1319 24.4836 14.1111 24.4838C14.1109 24.4838 14.1108 24.4838 14.1106 24.4838L9.05584 24.5C9.05568 24.5 9.05552 24.5 9.05536 24.5C9.03459 24.4999 8.98742 24.4901 8.93397 24.424C8.87779 24.3546 8.83368 24.2416 8.83368 24.107V15.1648L17.0006 6.84766L25.1657 15.1588V24.107C25.1657 24.2416 25.1216 24.3546 25.0654 24.424C25.0118 24.4903 24.9646 24.4999 24.9439 24.5C24.9437 24.5 24.9436 24.5 24.9435 24.5L19.8892 24.4827H19.8874C19.8749 24.4827 19.8588 24.4799 19.8389 24.4696C19.8184 24.4591 19.7922 24.4397 19.7652 24.4063C19.7382 24.3728 19.7127 24.3277 19.694 24.2717C19.6754 24.2156 19.6651 24.1531 19.6653 24.0882Z" stroke="black"/>
</g>
<defs>
<filter id="filter0_d" x="0" y="0" width="34" height="33" filterUnits="userSpaceOnUse" color-interpolation-filters="sRGB">
<feFlood flood-opacity="0" result="BackgroundImageFix"/>
<feColorMatrix in="SourceAlpha" type="matrix" values="0 0 0 0 0 0 0 0 0 0 0 0 0 0 0 0 0 0 127 0"/>
<feOffset dy="4"/>
<feGaussianBlur stdDeviation="2"/>
<feColorMatrix type="matrix" values="0 0 0 0 0 0 0 0 0 0 0 0 0 0 0 0 0 0 0.25 0"/>
<feBlend mode="normal" in2="BackgroundImageFix" result="effect1_dropShadow"/>
<feBlend mode="normal" in="SourceGraphic" in2="effect1_dropShadow" result="shape"/>
</filter>
</defs>
</svg>
