<svg width="27" height="24" viewBox="0 0 27 24" fill="none" xmlns="http://www.w3.org/2000/svg">
<path d="M13.6668 3.61481C13.5839 3.5405 13.4737 3.49902 13.359 3.49902C13.2443 3.49902 13.1341 3.5405 13.0512 3.61481L2.80515 12.7911C2.76164 12.8301 2.72702 12.877 2.70339 12.9289C2.67976 12.9808 2.66762 13.0367 2.66769 13.0932L2.66602 21.7054C2.66602 22.1482 2.85365 22.5729 3.18765 22.886C3.52164 23.1991 3.97463 23.3751 4.44697 23.3751H9.79541C10.0316 23.3751 10.2581 23.2871 10.4251 23.1305C10.5921 22.974 10.6859 22.7616 10.6859 22.5402V15.4442C10.6859 15.3335 10.7328 15.2274 10.8163 15.1491C10.8998 15.0708 11.013 15.0268 11.1311 15.0268H15.5835C15.7016 15.0268 15.8148 15.0708 15.8983 15.1491C15.9818 15.2274 16.0288 15.3335 16.0288 15.4442V22.5402C16.0288 22.7616 16.1226 22.974 16.2896 23.1305C16.4566 23.2871 16.6831 23.3751 16.9192 23.3751H22.2654C22.7378 23.3751 23.1908 23.1991 23.5248 22.886C23.8588 22.5729 24.0464 22.1482 24.0464 21.7054V13.0932C24.0465 13.0367 24.0343 12.9808 24.0107 12.9289C23.9871 12.877 23.9524 12.8301 23.9089 12.7911L13.6668 3.61481Z" fill="#666666"/>
<path d="M26.4311 11.0692L22.2681 7.33548V1.66965C22.2681 1.44824 22.1743 1.2359 22.0073 1.07934C21.8403 0.922777 21.6138 0.834823 21.3776 0.834823H18.7062C18.47 0.834823 18.2435 0.922777 18.0765 1.07934C17.9095 1.2359 17.8157 1.44824 17.8157 1.66965V3.33929L14.5922 0.449761C14.2905 0.163834 13.8419 0 13.3572 0C12.8741 0 12.4266 0.163834 12.125 0.450282L0.2872 11.0682C-0.0589731 11.3812 -0.102384 11.8962 0.212623 12.2354C0.291726 12.321 0.388582 12.3906 0.497297 12.44C0.606012 12.4894 0.724311 12.5175 0.844996 12.5227C0.965681 12.5279 1.08623 12.51 1.1993 12.4701C1.31237 12.4302 1.4156 12.3692 1.5027 12.2907L13.0511 1.94514C13.134 1.87083 13.2442 1.82935 13.3589 1.82935C13.4735 1.82935 13.5838 1.87083 13.6666 1.94514L25.2161 12.2907C25.3863 12.4436 25.6141 12.5271 25.8498 12.5228C26.0855 12.5185 26.3097 12.4268 26.4734 12.2677C26.8151 11.9359 26.7867 11.388 26.4311 11.0692Z" fill="#666666"/>
</svg>
