<svg width="20" height="26" viewBox="0 0 20 26" fill="none" xmlns="http://www.w3.org/2000/svg">
<path fill-rule="evenodd" clip-rule="evenodd" d="M9.98465 0.623383C15.2952 0.623383 19.5927 4.98702 19.5927 10.3792C19.5927 16.2701 13.5761 20.9143 9.98465 25.7455C6.42385 20.9143 0.407318 16.2701 0.407318 10.3792C0.407318 4.98702 4.70484 0.623383 9.98465 0.623383ZM9.98465 23.6883C12.9929 20.0104 18.3034 15.3039 18.3034 10.3792C18.3034 5.7039 14.5891 1.93247 9.98465 1.93247C5.41086 1.93247 1.69657 5.7039 1.69657 10.3792C1.69657 15.2416 7.06848 20.1662 9.98465 23.6883ZM9.98465 4.48832C13.2078 4.48832 15.7863 7.1065 15.7863 10.3792C15.7863 13.6208 13.2078 16.239 9.98465 16.239C6.79221 16.239 4.21369 13.6208 4.21369 10.3792C4.21369 7.1065 6.79221 4.48832 9.98465 4.48832ZM9.98465 5.76624C12.5018 5.76624 14.5277 7.82338 14.5277 10.3792C14.5277 12.9039 12.5018 14.961 9.98465 14.961C7.49823 14.961 5.47225 12.9039 5.47225 10.3792C5.47225 7.82338 7.49823 5.76624 9.98465 5.76624Z" fill="#D51B47"/>
</svg>
