<svg width="31" height="23" viewBox="0 0 31 23" fill="none" xmlns="http://www.w3.org/2000/svg">
<path d="M0 3.83333C0 2.81667 0.408258 1.84165 1.13496 1.12276C1.86166 0.403868 2.84729 0 3.875 0H27.125C28.1527 0 29.1383 0.403868 29.865 1.12276C30.5917 1.84165 31 2.81667 31 3.83333V19.1667C31 20.1833 30.5917 21.1584 29.865 21.8772C29.1383 22.5961 28.1527 23 27.125 23H3.875C2.84729 23 1.86166 22.5961 1.13496 21.8772C0.408258 21.1584 0 20.1833 0 19.1667V3.83333ZM3.875 1.91667C3.36114 1.91667 2.86833 2.1186 2.50498 2.47805C2.14163 2.83749 1.9375 3.325 1.9375 3.83333V4.24925L15.5 12.2992L29.0625 4.24925V3.83333C29.0625 3.325 28.8584 2.83749 28.495 2.47805C28.1317 2.1186 27.6389 1.91667 27.125 1.91667H3.875ZM29.0625 6.48408L19.8439 11.9562L29.0625 17.4685V6.486V6.48408ZM28.9966 19.6669L17.9626 13.0717L15.5 14.5341L13.0355 13.0717L2.00338 19.665C2.1142 20.0721 2.35764 20.4318 2.69601 20.6882C3.03437 20.9446 3.44877 21.0835 3.875 21.0833H27.125C27.551 21.0836 27.9652 20.945 28.3035 20.689C28.6418 20.4329 28.8854 20.0737 28.9966 19.6669ZM1.9375 17.4685L11.1561 11.9562L1.9375 6.48408V17.4666V17.4685Z" fill="#666666"/>
</svg>
