<?xml version="1.0" encoding="UTF-8"?>
<svg xmlns="http://www.w3.org/2000/svg" xmlns:xlink="http://www.w3.org/1999/xlink" width="19pt" height="19pt" viewBox="0 0 19 19" version="1.1">
<g id="surface1">
<path style=" stroke:none;fill-rule:evenodd;fill:rgb(83.137255%,10.588235%,27.843137%);fill-opacity:1;" d="M 17.417969 0 L 1.59375 0 C 0.722656 0 0.0117188 0.753906 0.0117188 1.679688 L 0.0117188 11.882812 L 0 11.878906 L 0 17.589844 L 0.0117188 17.597656 L 0.0117188 17.648438 C 0.0117188 18.34375 0.542969 18.910156 1.199219 18.910156 L 1.304688 18.910156 C 1.8125 18.910156 2.242188 18.574219 2.414062 18.097656 L 5.800781 14.5 L 17.417969 14.5 C 18.292969 14.5 19 13.75 19 12.820312 L 19 1.679688 C 19 0.753906 18.292969 0 17.417969 0 Z M 16.535156 2.652344 L 2.480469 2.652344 L 2.480469 14.515625 L 4.546875 11.878906 L 16.535156 11.878906 Z M 16.535156 2.652344 "/>
</g>
</svg>
