<svg width="27" height="27" viewBox="0 0 27 27" fill="none" xmlns="http://www.w3.org/2000/svg">
<path d="M21.8333 8.50133C21.8333 6.51185 20.9554 4.60386 19.3926 3.19709C17.8298 1.79032 15.7101 1 13.5 1C11.2899 1 9.17025 1.79032 7.60744 3.19709C6.04464 4.60386 5.16667 6.51185 5.16667 8.50133C5.16667 17.2529 1 19.7533 1 19.7533H26C26 19.7533 21.8333 17.2529 21.8333 8.50133Z" stroke="#666666" stroke-width="2" stroke-linecap="round" stroke-linejoin="round"/>
<path d="M15.9027 24.7542C15.6585 25.1331 15.3081 25.4476 14.8864 25.6663C14.4647 25.8849 13.9866 26 13.4999 26C13.0133 26 12.5352 25.8849 12.1135 25.6663C11.6918 25.4476 11.3413 25.1331 11.0972 24.7542" stroke="#666666" stroke-width="2" stroke-linecap="round" stroke-linejoin="round"/>
</svg>
