<svg width="34" height="23" viewBox="0 0 34 23" fill="none" xmlns="http://www.w3.org/2000/svg">
<path fill-rule="evenodd" clip-rule="evenodd" d="M17 -0.000149965C19.2122 -0.000149965 21.0056 1.78784 21.0056 3.99326C21.0056 6.19839 19.2122 7.98637 17 7.98637C14.7876 7.98637 12.9942 6.19839 12.9942 3.99326C12.9942 1.78784 14.7876 -0.000149965 17 -0.000149965ZM11.1874 5.17178C11.1874 3.42002 9.76043 2.00014 7.99997 2.00014C6.2395 2.00014 4.81249 3.42002 4.81249 5.17178C4.81249 6.92351 6.2395 8.34372 7.99997 8.34372C9.76043 8.34372 11.1874 6.92351 11.1874 5.17178ZM9.59376 5.17178C9.59376 4.30032 8.88012 3.59381 7.99997 3.59381C7.11981 3.59381 6.40613 4.30032 6.40613 5.17178C6.40613 6.04325 7.11981 6.74972 7.99997 6.74972C8.88012 6.74972 9.59376 6.04325 9.59376 5.17178ZM7.99997 10.7187C8.21183 10.7187 8.42177 10.726 8.62949 10.7405C8.0477 11.2317 7.50878 11.7797 7.01984 12.3768C3.94705 12.7854 1.59377 15.0846 1.59377 17.8592L1.5938 17.8749H4.34895C4.23285 18.3846 4.1445 18.9061 4.08574 19.4375H0.78122C0.349692 19.4375 -5.99623e-05 19.0877 -5.99623e-05 18.6562C-5.99623e-05 18.5853 0.00937438 18.5166 0.027056 18.4514C0.0090971 18.2561 -5.99623e-05 18.0586 -5.99623e-05 17.8592C-5.99623e-05 13.9157 3.58163 10.7187 7.99997 10.7187ZM29.1875 5.17178C29.1875 3.42002 27.7603 2.00014 26 2.00014C24.2396 2.00014 22.8125 3.42002 22.8125 5.17178C22.8125 6.92351 24.2396 8.34372 26 8.34372C27.7603 8.34372 29.1875 6.92351 29.1875 5.17178ZM26 3.59381C26.8802 3.59381 27.5937 4.30032 27.5937 5.17178C27.5937 6.04325 26.8802 6.74972 26 6.74972C25.1197 6.74972 24.4062 6.04325 24.4062 5.17178C24.4062 4.30032 25.1197 3.59381 26 3.59381ZM34 17.8592C34 13.9157 30.4182 10.7187 26 10.7187C25.7881 10.7187 25.5782 10.726 25.3705 10.7405C25.9523 11.2317 26.4912 11.7797 26.9801 12.3768C30.0529 12.7854 32.4062 15.0846 32.4062 17.8592L32.4062 17.8749H29.651C29.7671 18.3846 29.8555 18.9061 29.9142 19.4375H33.2187C33.6501 19.4375 34 19.0877 34 18.6562C34 18.5853 33.9906 18.5167 33.9729 18.4514C33.9909 18.2561 34 18.0586 34 17.8592ZM18.9887 4.00732C18.9887 2.90461 18.0982 2.01061 17 2.01061C15.9017 2.01061 15.0113 2.90461 15.0113 4.00732C15.0113 5.11003 15.9017 6.00369 17 6.00369C18.0982 6.00369 18.9887 5.11003 18.9887 4.00732ZM17 10.9884C22.5228 10.9884 27 15.0201 27 19.9941C27 20.244 26.9887 20.4916 26.9665 20.7364C26.9884 20.8186 27 20.9049 27 20.9939V21.0047C27 21.5573 26.5523 22.0048 26 22.0048H7.99997C7.44764 22.0048 6.99996 21.5573 6.99996 21.0047V20.9939C6.99996 20.9049 7.0116 20.8186 7.03344 20.7364C7.01127 20.4916 6.99996 20.244 6.99996 19.9941C6.99996 15.0201 11.477 10.9884 17 10.9884ZM8.98861 19.9941H25.0114C25.0114 16.131 21.4245 12.9989 17 12.9989C12.5754 12.9989 8.98861 16.131 8.98861 19.9941Z" fill="#666666"/>
</svg>
