<svg width="20" height="6" viewBox="0 0 20 6" fill="none" xmlns="http://www.w3.org/2000/svg">
<path d="M2.784 2.672C3.05067 2.78933 3.25867 2.96533 3.408 3.2C3.55733 3.43467 3.632 3.712 3.632 4.032C3.632 4.49067 3.488 4.864 3.2 5.152C2.912 5.42933 2.544 5.568 2.096 5.568C1.648 5.568 1.27467 5.424 0.976 5.136C0.688 4.848 0.544 4.48 0.544 4.032C0.544 3.81867 0.570667 3.60533 0.624 3.392C0.677333 3.17867 0.794667 2.85867 0.976 2.432L1.904 0.127999H3.488L2.784 2.672ZM6.56 2.672C6.82667 2.78933 7.03467 2.96533 7.184 3.2C7.33333 3.43467 7.408 3.712 7.408 4.032C7.408 4.49067 7.264 4.864 6.976 5.152C6.688 5.42933 6.32 5.568 5.872 5.568C5.424 5.568 5.05067 5.424 4.752 5.136C4.464 4.848 4.32 4.48 4.32 4.032C4.32 3.81867 4.34667 3.60533 4.4 3.392C4.45333 3.17867 4.57067 2.85867 4.752 2.432L5.68 0.127999H7.264L6.56 2.672ZM15.284 2.672C15.5507 2.78933 15.7587 2.96533 15.908 3.2C16.0573 3.43467 16.132 3.712 16.132 4.032C16.132 4.49067 15.988 4.864 15.7 5.152C15.412 5.42933 15.044 5.568 14.596 5.568C14.148 5.568 13.7747 5.424 13.476 5.136C13.188 4.848 13.044 4.48 13.044 4.032C13.044 3.81867 13.0707 3.60533 13.124 3.392C13.1773 3.17867 13.2947 2.85867 13.476 2.432L14.404 0.127999H15.988L15.284 2.672ZM19.06 2.672C19.3267 2.78933 19.5347 2.96533 19.684 3.2C19.8333 3.43467 19.908 3.712 19.908 4.032C19.908 4.49067 19.764 4.864 19.476 5.152C19.188 5.42933 18.82 5.568 18.372 5.568C17.924 5.568 17.5507 5.424 17.252 5.136C16.964 4.848 16.82 4.48 16.82 4.032C16.82 3.81867 16.8467 3.60533 16.9 3.392C16.9533 3.17867 17.0707 2.85867 17.252 2.432L18.18 0.127999H19.764L19.06 2.672Z" fill="#D41B47"/>
</svg>
