<svg width="11" height="8" viewBox="0 0 11 8" fill="none" xmlns="http://www.w3.org/2000/svg">
<path d="M6.89089 7.53394L6.87295 7.5318C6.29627 7.46519 5.94462 7.18646 5.79776 6.67964C5.7365 6.46833 5.56606 6.30338 5.35282 6.24929C5.06729 6.17707 4.77152 6.19653 4.49522 6.30551L4.17484 6.43209C3.40542 6.84591 2.65701 6.823 1.96551 6.36147C1.70203 6.1856 1.5626 5.86797 1.61873 5.57139C1.62821 5.52023 1.63898 5.4283 1.60207 5.39046C1.58387 5.3718 1.50032 5.31531 1.20172 5.38113C0.914149 5.38033 0.700904 5.32864 0.520467 5.22578C0.306966 5.10347 0.171894 4.86445 0.168049 4.60117C0.164461 4.34963 0.280823 4.12659 0.479458 4.00455C0.693984 3.87291 0.812396 3.65228 0.851867 3.31013C0.90159 2.87525 1.09356 2.46382 1.3919 2.15179L1.58208 1.953C1.85812 1.66468 2.25205 1.53385 2.65829 1.58954C2.85642 1.61752 2.9961 1.5946 3.06326 1.52452C3.30803 1.26738 3.5997 1.15599 3.88368 1.20955C4.64209 1.35345 5.36666 1.26578 6.09943 0.940686L6.12993 0.927096L6.16273 0.930294C6.37188 0.950012 6.58871 0.894587 6.69918 0.791996C6.94856 0.559635 7.31533 0.455445 7.72285 0.495415L8.39693 0.568162L9.27529 0.918835C9.48263 1.00197 9.66999 1.12402 9.83172 1.28203L10.1846 1.62658C10.3456 1.78379 10.4228 2.01296 10.3907 2.23946L10.372 2.37216C10.3215 2.72603 10.006 2.97598 9.65205 2.97358C8.84393 2.94347 8.44896 3.23232 8.42359 3.44203C8.40103 3.62856 8.65093 3.81083 9.05999 3.90622C9.56081 3.99922 9.91041 4.206 10.0929 4.52017C10.2803 4.84206 10.2926 5.27721 10.1295 5.81308C9.88785 6.59277 9.31655 7.08014 8.43128 7.26267H8.43102C8.28595 7.29305 8.13755 7.27892 8.01812 7.26693C7.75207 7.24082 7.55651 7.31676 7.34788 7.3967C7.21204 7.44867 7.07159 7.50249 6.90883 7.53074L6.89089 7.53394ZM5.01039 5.93352C5.14572 5.93352 5.28131 5.95031 5.41484 5.98442C5.7183 6.06116 5.96128 6.29752 6.04894 6.60103C6.16376 6.99727 6.4216 7.20058 6.88346 7.25841C7.01469 7.23363 7.13259 7.18833 7.25715 7.14063C7.48424 7.05403 7.72003 6.96422 8.04221 6.99513C8.15011 7.00553 8.27237 7.01779 8.38002 6.99513C9.1761 6.83099 9.6664 6.41716 9.87965 5.73021C10.0186 5.27294 10.015 4.91321 9.86837 4.6614C9.72664 4.41731 9.43701 4.25343 9.00822 4.17376C8.43512 4.04026 8.12141 3.75434 8.16318 3.40793C8.20676 3.04659 8.69194 2.67247 9.65974 2.70072C9.87632 2.71564 10.0814 2.54989 10.1121 2.33272L10.1308 2.19975C10.1506 2.06146 10.1034 1.92156 10.005 1.82536L9.65205 1.48082C9.51519 1.34732 9.35653 1.24393 9.18097 1.17358L8.31927 0.829568L7.69774 0.767214C7.50269 0.746962 7.13618 0.750959 6.87449 0.995045C6.71507 1.144 6.44595 1.22421 6.17273 1.20476C5.40151 1.54104 4.63645 1.63057 3.83652 1.47815C3.57279 1.42779 3.35493 1.60606 3.24959 1.71664C3.11887 1.85414 2.91409 1.90157 2.62293 1.85974C2.29588 1.81471 1.98575 1.91809 1.76815 2.14539L1.57798 2.34418C1.32065 2.61305 1.15533 2.96772 1.11227 3.34264C1.06306 3.77006 0.89954 4.06344 0.612736 4.23958C0.496374 4.31099 0.428197 4.44476 0.430504 4.59718C0.432811 4.76239 0.515853 4.91161 0.647081 4.98649C0.78856 5.0675 0.961821 5.10827 1.17635 5.1112C1.46213 5.04538 1.66461 5.07123 1.78609 5.19593C1.88118 5.2932 1.91143 5.43709 1.87606 5.62388C1.8412 5.80881 1.93629 6.01773 2.1075 6.13177C2.72314 6.54267 3.36492 6.55946 4.06822 6.18347L4.40193 6.0505C4.59851 5.97269 4.80433 5.93352 5.01039 5.93352Z" fill="#D51B47"/>
</svg>
