<svg width="24" height="24" viewBox="0 0 24 24" fill="none" xmlns="http://www.w3.org/2000/svg">
<path fill-rule="evenodd" clip-rule="evenodd" d="M9.76735 0C15.1618 0 19.5349 4.2825 19.5349 9.56507C19.5349 11.8406 18.7235 13.9304 17.3685 15.5722L24.0001 22.066L22.0248 24L15.3202 17.4346C13.7436 18.5032 11.8301 19.1293 9.76735 19.1293C4.37285 19.1293 0 14.8477 0 9.56507C0 4.2825 4.37285 0 9.76735 0ZM9.74643 2.73947C13.6079 2.73947 16.738 5.80418 16.738 9.58554C16.738 13.3665 13.6079 16.4321 9.74643 16.4321C5.88513 16.4321 2.75489 13.3665 2.75489 9.58554C2.75489 5.80418 5.88513 2.73947 9.74643 2.73947Z" fill="#888888"/>
</svg>
