<svg width="23" height="23" viewBox="0 0 23 23" fill="none" xmlns="http://www.w3.org/2000/svg">
<path fill-rule="evenodd" clip-rule="evenodd" d="M9.36037 0C14.5301 0 18.721 4.10406 18.721 9.16653C18.721 11.3472 17.9433 13.3499 16.6448 14.9234L23.0001 21.1466L21.1071 23L14.6819 16.7081C13.1709 17.7323 11.3372 18.3322 9.36037 18.3322C4.19065 18.3322 0 14.229 0 9.16653C0 4.10406 4.19065 0 9.36037 0ZM9.34033 2.62532C13.0409 2.62532 16.0406 5.56234 16.0406 9.18614C16.0406 12.8095 13.0409 15.7474 9.34033 15.7474C5.63992 15.7474 2.6401 12.8095 2.6401 9.18614C2.6401 5.56234 5.63992 2.62532 9.34033 2.62532Z" fill="#666666"/>
</svg>
