<svg width="24" height="16" viewBox="0 0 24 16" fill="none" xmlns="http://www.w3.org/2000/svg">
<path fill-rule="evenodd" clip-rule="evenodd" d="M21.7424 0.762103L17.2458 5.33366V1.52414C17.2458 0.682398 16.5747 5.11408e-05 15.7469 5.11408e-05H1.50812C0.680354 5.11408e-05 0.00929403 0.682398 0.00929403 1.52414V14.4765C0.00929403 15.3179 0.680354 16.0002 1.50812 16.0002H15.7469C16.5747 16.0002 17.2458 15.3179 17.2458 14.4765V10.6669L21.7424 15.2382H22.4917C23.3195 15.2382 23.9905 14.5558 23.9905 13.7144V2.28585C23.9905 1.44443 23.3195 0.762103 22.4917 0.762103H21.7424ZM14.9977 13.7144H2.25754V2.28585H14.9977V13.7144ZM21.7424 12.0061L17.8024 8.00029L21.7424 3.99446V12.0061Z" fill="white"/>
</svg>
